<svg xmlns="http://www.w3.org/2000/svg" enable-background="new 0 0 24 24" viewBox="0 0 24 24" id="sunglasses"><linearGradient id="a" x1="23.566" x2="-.431" y1="-.328" y2="23.669" gradientUnits="userSpaceOnUse"><stop offset="0" stop-color="#f8cdda"></stop><stop offset="1" stop-color="#1d2b64"></stop></linearGradient><path fill="url(#a)" d="M21.5,10.5h-0.7l0-0.3c0.1-0.4-0.1-0.9-0.4-1.2c-0.3-0.3-0.7-0.5-1.1-0.5h-5.2
		c-0.4,0-0.8,0.2-1.1,0.5c-0.3,0.3-0.4,0.8-0.4,1.2l0,0.3h-1.4l0.1-0.3C11.4,9.8,11.3,9.3,11,9c-0.3-0.3-0.7-0.5-1.1-0.5H4.7
		C4.2,8.5,3.8,8.7,3.5,9c-0.3,0.3-0.4,0.8-0.4,1.2l0,0.3H2.5C2.2,10.5,2,10.7,2,11c0,0.3,0.2,0.5,0.5,0.5h0.9l0.5,2.7
		C4,15,4.6,15.5,5.4,15.5h3.8c0.7,0,1.4-0.5,1.5-1.3l0.1-0.7h2.5l0.1,0.7c0.1,0.7,0.8,1.3,1.5,1.3H18c0.3,0,0.5-0.2,0.5-0.5
		c0-0.3-0.2-0.5-0.5-0.5h-3.1c-0.3,0-0.5-0.2-0.5-0.5l-0.7-4c0-0.1,0-0.3,0.1-0.4c0.1-0.1,0.2-0.2,0.4-0.2h5.2
		c0.1,0,0.3,0.1,0.4,0.2c0.1,0.1,0.1,0.3,0.1,0.4l-0.6,3.4c0,0.3,0.1,0.5,0.4,0.6c0,0,0.1,0,0.1,0c0.2,0,0.4-0.2,0.5-0.4l0.4-2.1
		h0.9c0.3,0,0.5-0.2,0.5-0.5C22,10.7,21.8,10.5,21.5,10.5z M9.6,14.1c0,0.2-0.3,0.4-0.5,0.4H5.4c-0.3,0-0.5-0.2-0.5-0.5l-0.7-4
		c0-0.1,0-0.3,0.1-0.4c0.1-0.1,0.2-0.2,0.4-0.2h5.2c0.2,0,0.3,0.1,0.4,0.2c0.1,0.1,0.2,0.3,0.1,0.4L9.6,14.1z M10.9,12.5l0.2-1h1.8
		l0.2,1H10.9z"></path><linearGradient id="b" x1="20.701" x2="-3.297" y1="-3.201" y2="20.797" gradientUnits="userSpaceOnUse"><stop offset="0" stop-color="#f8cdda"></stop><stop offset="1" stop-color="#1d2b64"></stop></linearGradient><path fill="url(#b)" d="M7,10.5H6c-0.3,0-0.5,0.2-0.5,0.5s0.2,0.5,0.5,0.5h1c0.3,0,0.5-0.2,0.5-0.5S7.3,10.5,7,10.5z"></path><linearGradient id="c" x1="21.709" x2="-2.304" y1="-2.209" y2="21.804" gradientUnits="userSpaceOnUse"><stop offset="0" stop-color="#f8cdda"></stop><stop offset="1" stop-color="#1d2b64"></stop></linearGradient><circle cx="8.5" cy="11" r=".5" fill="url(#c)"></circle><linearGradient id="d" x1="29.197" x2="5.184" y1="5.303" y2="29.316" gradientUnits="userSpaceOnUse"><stop offset="0" stop-color="#f8cdda"></stop><stop offset="1" stop-color="#1d2b64"></stop></linearGradient><circle cx="19.5" cy="15" r=".5" fill="url(#d)"></circle></svg>